<mxfile host="Electron" modified="2024-11-13T20:24:06.345Z" agent="Mozilla/5.0 (Windows NT 10.0; Win64; x64) AppleWebKit/537.36 (KHTML, like Gecko) draw.io/21.6.8 Chrome/114.0.5735.289 Electron/25.5.0 Safari/537.36" etag="JSRrt2Ydz0DBBCErWU-x" version="21.6.8" type="device" pages="3">
  <diagram name="Page-1" id="KETgZPP65rIH7w0Y9AX6">
    <mxGraphModel dx="1036" dy="614" grid="1" gridSize="10" guides="1" tooltips="1" connect="1" arrows="1" fold="1" page="1" pageScale="1" pageWidth="850" pageHeight="1100" math="0" shadow="0">
      <root>
        <mxCell id="0" />
        <mxCell id="1" parent="0" />
        <mxCell id="YFYgJY8O6xxAq93FL2VU-1" value="" style="rounded=0;whiteSpace=wrap;html=1;" parent="1" vertex="1">
          <mxGeometry x="160" y="150" width="250" height="280" as="geometry" />
        </mxCell>
        <mxCell id="YFYgJY8O6xxAq93FL2VU-3" value="&lt;b&gt;&lt;font style=&quot;font-size: 15px;&quot;&gt;Qualtiy Tool&lt;/font&gt;&lt;/b&gt;" style="text;html=1;strokeColor=none;fillColor=none;align=center;verticalAlign=middle;whiteSpace=wrap;rounded=0;" parent="1" vertex="1">
          <mxGeometry x="110" y="152" width="200" height="30" as="geometry" />
        </mxCell>
        <mxCell id="YFYgJY8O6xxAq93FL2VU-4" value="" style="rounded=0;whiteSpace=wrap;html=1;fillColor=#f5f5f5;fontColor=#333333;strokeColor=#666666;" parent="1" vertex="1">
          <mxGeometry x="167" y="210" width="70" height="30" as="geometry" />
        </mxCell>
        <mxCell id="YFYgJY8O6xxAq93FL2VU-5" value="" style="rounded=0;whiteSpace=wrap;html=1;fillColor=#f5f5f5;fontColor=#333333;strokeColor=#666666;" parent="1" vertex="1">
          <mxGeometry x="168" y="260" width="70" height="30" as="geometry" />
        </mxCell>
        <mxCell id="YFYgJY8O6xxAq93FL2VU-6" value="" style="rounded=0;whiteSpace=wrap;html=1;fillColor=#f5f5f5;fontColor=#333333;strokeColor=#666666;" parent="1" vertex="1">
          <mxGeometry x="326" y="210" width="70" height="30" as="geometry" />
        </mxCell>
        <mxCell id="YFYgJY8O6xxAq93FL2VU-7" value="" style="rounded=0;whiteSpace=wrap;html=1;fillColor=#f5f5f5;fontColor=#333333;strokeColor=#666666;" parent="1" vertex="1">
          <mxGeometry x="324" y="260" width="70" height="30" as="geometry" />
        </mxCell>
        <mxCell id="YFYgJY8O6xxAq93FL2VU-8" value="" style="rounded=0;whiteSpace=wrap;html=1;fillColor=#f5f5f5;fontColor=#333333;strokeColor=#666666;" parent="1" vertex="1">
          <mxGeometry x="247" y="210" width="70" height="30" as="geometry" />
        </mxCell>
        <mxCell id="YFYgJY8O6xxAq93FL2VU-9" value="" style="rounded=0;whiteSpace=wrap;html=1;fillColor=#f5f5f5;fontColor=#333333;strokeColor=#666666;" parent="1" vertex="1">
          <mxGeometry x="247" y="260" width="70" height="30" as="geometry" />
        </mxCell>
        <mxCell id="YFYgJY8O6xxAq93FL2VU-10" value="Projects" style="text;html=1;strokeColor=none;fillColor=none;align=center;verticalAlign=middle;whiteSpace=wrap;rounded=0;" parent="1" vertex="1">
          <mxGeometry x="246" y="175" width="60" height="30" as="geometry" />
        </mxCell>
        <mxCell id="YFYgJY8O6xxAq93FL2VU-12" value="&lt;b&gt;MCS&lt;/b&gt;" style="text;html=1;strokeColor=none;fillColor=none;align=center;verticalAlign=middle;whiteSpace=wrap;rounded=0;" parent="1" vertex="1">
          <mxGeometry x="172" y="210" width="60" height="30" as="geometry" />
        </mxCell>
      </root>
    </mxGraphModel>
  </diagram>
  <diagram id="mPSKtLlXPW_J_BAHO5Al" name="Page-2">
    <mxGraphModel dx="1036" dy="614" grid="1" gridSize="10" guides="1" tooltips="1" connect="1" arrows="1" fold="1" page="1" pageScale="1" pageWidth="850" pageHeight="1100" math="0" shadow="0">
      <root>
        <mxCell id="0" />
        <mxCell id="1" parent="0" />
        <mxCell id="5OUgcwfGQyVOrfaSoMGt-1" value="Project&lt;br&gt;id:&lt;br&gt;name:&lt;br&gt;PO:" style="rounded=1;whiteSpace=wrap;html=1;" parent="1" vertex="1">
          <mxGeometry x="80" y="130" width="100" height="90" as="geometry" />
        </mxCell>
      </root>
    </mxGraphModel>
  </diagram>
  <diagram id="ZJOp2LO_Yk2Z8C5zAkVs" name="Page-3">
    <mxGraphModel dx="1036" dy="1714" grid="1" gridSize="10" guides="1" tooltips="1" connect="1" arrows="1" fold="1" page="1" pageScale="1" pageWidth="850" pageHeight="1100" math="0" shadow="0">
      <root>
        <mxCell id="0" />
        <mxCell id="1" parent="0" />
        <mxCell id="KCNUkuyCcsG_-jFd1lx6-29" value="" style="rounded=0;whiteSpace=wrap;html=1;" vertex="1" parent="1">
          <mxGeometry x="20" y="10" width="820" height="980" as="geometry" />
        </mxCell>
        <mxCell id="KCNUkuyCcsG_-jFd1lx6-1" value="&lt;b&gt;Object-Oriented&lt;/b&gt;" style="rounded=0;whiteSpace=wrap;html=1;fillColor=#f5f5f5;fontColor=#333333;strokeColor=#666666;" vertex="1" parent="1">
          <mxGeometry x="70" y="100" width="120" height="60" as="geometry" />
        </mxCell>
        <mxCell id="KCNUkuyCcsG_-jFd1lx6-2" value="&#xa;&lt;strong&gt;Event-Driven&lt;/strong&gt;&#xa;&#xa;" style="rounded=0;whiteSpace=wrap;html=1;fillColor=#f5f5f5;fontColor=#333333;strokeColor=#666666;" vertex="1" parent="1">
          <mxGeometry x="80" y="560" width="120" height="60" as="geometry" />
        </mxCell>
        <mxCell id="KCNUkuyCcsG_-jFd1lx6-3" value="&lt;strong&gt;Functional&lt;/strong&gt;" style="rounded=0;whiteSpace=wrap;html=1;fillColor=#f5f5f5;fontColor=#333333;strokeColor=#666666;" vertex="1" parent="1">
          <mxGeometry x="70" y="380" width="120" height="60" as="geometry" />
        </mxCell>
        <mxCell id="KCNUkuyCcsG_-jFd1lx6-5" value="&lt;strong&gt;Concurrent Programming&lt;/strong&gt;" style="rounded=0;whiteSpace=wrap;html=1;fillColor=#f8cecc;strokeColor=#b85450;" vertex="1" parent="1">
          <mxGeometry x="80" y="760" width="120" height="60" as="geometry" />
        </mxCell>
        <mxCell id="KCNUkuyCcsG_-jFd1lx6-22" style="edgeStyle=orthogonalEdgeStyle;rounded=0;orthogonalLoop=1;jettySize=auto;html=1;" edge="1" parent="1" source="KCNUkuyCcsG_-jFd1lx6-6" target="KCNUkuyCcsG_-jFd1lx6-21">
          <mxGeometry relative="1" as="geometry" />
        </mxCell>
        <mxCell id="KCNUkuyCcsG_-jFd1lx6-6" value="Encapsulation" style="rounded=1;whiteSpace=wrap;html=1;fillColor=#d5e8d4;strokeColor=#82b366;" vertex="1" parent="1">
          <mxGeometry x="270" y="50" width="100" height="40" as="geometry" />
        </mxCell>
        <mxCell id="KCNUkuyCcsG_-jFd1lx6-24" style="edgeStyle=orthogonalEdgeStyle;rounded=0;orthogonalLoop=1;jettySize=auto;html=1;entryX=0;entryY=0.5;entryDx=0;entryDy=0;" edge="1" parent="1" source="KCNUkuyCcsG_-jFd1lx6-7" target="KCNUkuyCcsG_-jFd1lx6-23">
          <mxGeometry relative="1" as="geometry" />
        </mxCell>
        <mxCell id="KCNUkuyCcsG_-jFd1lx6-7" value="Inheritance" style="rounded=1;whiteSpace=wrap;html=1;fillColor=#d5e8d4;strokeColor=#82b366;" vertex="1" parent="1">
          <mxGeometry x="270" y="100" width="100" height="40" as="geometry" />
        </mxCell>
        <mxCell id="KCNUkuyCcsG_-jFd1lx6-8" value="Polymorphism" style="rounded=1;whiteSpace=wrap;html=1;fillColor=#f8cecc;strokeColor=#b85450;" vertex="1" parent="1">
          <mxGeometry x="270" y="150" width="100" height="40" as="geometry" />
        </mxCell>
        <mxCell id="KCNUkuyCcsG_-jFd1lx6-9" value="Abstraction" style="rounded=1;whiteSpace=wrap;html=1;fillColor=#f8cecc;strokeColor=#b85450;" vertex="1" parent="1">
          <mxGeometry x="270" y="200" width="100" height="40" as="geometry" />
        </mxCell>
        <mxCell id="KCNUkuyCcsG_-jFd1lx6-26" style="edgeStyle=orthogonalEdgeStyle;rounded=0;orthogonalLoop=1;jettySize=auto;html=1;entryX=0;entryY=0.5;entryDx=0;entryDy=0;" edge="1" parent="1" source="KCNUkuyCcsG_-jFd1lx6-10" target="KCNUkuyCcsG_-jFd1lx6-25">
          <mxGeometry relative="1" as="geometry" />
        </mxCell>
        <mxCell id="KCNUkuyCcsG_-jFd1lx6-10" value="First class function" style="rounded=1;whiteSpace=wrap;html=1;fillColor=#d5e8d4;strokeColor=#82b366;" vertex="1" parent="1">
          <mxGeometry x="250" y="360" width="100" height="40" as="geometry" />
        </mxCell>
        <mxCell id="KCNUkuyCcsG_-jFd1lx6-28" style="edgeStyle=orthogonalEdgeStyle;rounded=0;orthogonalLoop=1;jettySize=auto;html=1;" edge="1" parent="1" source="KCNUkuyCcsG_-jFd1lx6-11" target="KCNUkuyCcsG_-jFd1lx6-27">
          <mxGeometry relative="1" as="geometry" />
        </mxCell>
        <mxCell id="KCNUkuyCcsG_-jFd1lx6-11" value="HOF" style="rounded=1;whiteSpace=wrap;html=1;fillColor=#d5e8d4;strokeColor=#82b366;" vertex="1" parent="1">
          <mxGeometry x="250" y="420" width="100" height="40" as="geometry" />
        </mxCell>
        <mxCell id="KCNUkuyCcsG_-jFd1lx6-12" value="Events" style="rounded=1;whiteSpace=wrap;html=1;" vertex="1" parent="1">
          <mxGeometry x="250" y="500" width="100" height="40" as="geometry" />
        </mxCell>
        <mxCell id="KCNUkuyCcsG_-jFd1lx6-13" value="Event handler" style="rounded=1;whiteSpace=wrap;html=1;" vertex="1" parent="1">
          <mxGeometry x="250" y="550" width="100" height="40" as="geometry" />
        </mxCell>
        <mxCell id="KCNUkuyCcsG_-jFd1lx6-14" value="Message Passing" style="rounded=1;whiteSpace=wrap;html=1;" vertex="1" parent="1">
          <mxGeometry x="250" y="650" width="100" height="40" as="geometry" />
        </mxCell>
        <mxCell id="KCNUkuyCcsG_-jFd1lx6-15" value="Callbacks" style="rounded=1;whiteSpace=wrap;html=1;" vertex="1" parent="1">
          <mxGeometry x="250" y="600" width="100" height="40" as="geometry" />
        </mxCell>
        <mxCell id="KCNUkuyCcsG_-jFd1lx6-17" value="&lt;strong&gt;Reactive Programming&lt;/strong&gt;" style="rounded=0;whiteSpace=wrap;html=1;fillColor=#f8cecc;strokeColor=#b85450;" vertex="1" parent="1">
          <mxGeometry x="80" y="880" width="120" height="60" as="geometry" />
        </mxCell>
        <mxCell id="KCNUkuyCcsG_-jFd1lx6-18" value="&lt;b&gt;JS&lt;/b&gt;" style="shape=card;whiteSpace=wrap;html=1;fillColor=#dae8fc;strokeColor=#6c8ebf;" vertex="1" parent="1">
          <mxGeometry x="380" y="-100" width="80" height="100" as="geometry" />
        </mxCell>
        <mxCell id="KCNUkuyCcsG_-jFd1lx6-21" value="Private Fields&lt;br&gt;" style="shape=process;whiteSpace=wrap;html=1;backgroundOutline=1;" vertex="1" parent="1">
          <mxGeometry x="440" y="40" width="120" height="60" as="geometry" />
        </mxCell>
        <mxCell id="KCNUkuyCcsG_-jFd1lx6-23" value="Extends" style="shape=process;whiteSpace=wrap;html=1;backgroundOutline=1;" vertex="1" parent="1">
          <mxGeometry x="440" y="110" width="120" height="60" as="geometry" />
        </mxCell>
        <mxCell id="KCNUkuyCcsG_-jFd1lx6-25" value="First class citizen&lt;br&gt;&lt;strong&gt;Functions can be assigned to variables,passed as arg,can be returned as value, can be stored in object&lt;/strong&gt;" style="shape=process;whiteSpace=wrap;html=1;backgroundOutline=1;" vertex="1" parent="1">
          <mxGeometry x="430" y="290" width="190" height="140" as="geometry" />
        </mxCell>
        <mxCell id="KCNUkuyCcsG_-jFd1lx6-27" value="- take a function as argument&lt;br&gt;- return a function" style="shape=process;whiteSpace=wrap;html=1;backgroundOutline=1;" vertex="1" parent="1">
          <mxGeometry x="440" y="450" width="180" height="60" as="geometry" />
        </mxCell>
      </root>
    </mxGraphModel>
  </diagram>
</mxfile>
